PathFileType	4	(X/Y/Z)	S01_0002_Gait_markers.trc
DataRate	CameraRate	NumFrames	NumMarkers	Units	OrigDataRate	OrigDataStartFrame	OrigNumFrames
250.000000	250.000000	4	54	mm	250.000000	123	330
Frame#	Time	HEAD_ANT			R_HEAD			L_HEAD			C7			R_BACK			L_BACK			STERNUM			R_ACROMION			R_HUM_PROX			R_HUM_ANT			R_HUM_POST			R_ELBOW_LAT			R_ELBOW_MED			R_FOREARM			R_WIRST_LAT			R_WRITS_MED			R_HAND			L_ACROMION			L_HUM_PROX			L_HUM_ANT			L_HUM_POST			L_ELBOW_LAT			L_ELBOW_MED			L_FOREARM			L_WRIST_LAT			L_WIRST_MED			L_HAND			R_ILIAC			SACRUM			L_ILIAC			R_GTROCH			R_THIGH__1			R_THIGH_2			R_THIGH_3			R_THIGH_4			R_SHANK_1			R_SHANK_2			R_SHANK_3			R_SHANK_4			R_HEEL			R_FOOT_LAT			R_FOOT_MED			L_GTROCH			L_THIGH_1			L_THIGH_2			L_THIGH_3			L_THIGH_4			L_SHANK_1			L_SHANK_2			L_SHANK_3			L_SHANK_4			L_HEEL			L_FOOT_LAT			L_FOOT_MED			
		X1	Y1	Z1	X2	Y2	Z2	X3	Y3	Z3	X4	Y4	Z4	X5	Y5	Z5	X6	Y6	Z6	X7	Y7	Z7	X8	Y8	Z8	X9	Y9	Z9	X10	Y10	Z10	X11	Y11	Z11	X12	Y12	Z12	X13	Y13	Z13	X14	Y14	Z14	X15	Y15	Z15	X16	Y16	Z16	X17	Y17	Z17	X18	Y18	Z18	X19	Y19	Z19	X20	Y20	Z20	X21	Y21	Z21	X22	Y22	Z22	X23	Y23	Z23	X24	Y24	Z24	X25	Y25	Z25	X26	Y26	Z26	X27	Y27	Z27	X28	Y28	Z28	X29	Y29	Z29	X30	Y30	Z30	X31	Y31	Z31	X32	Y32	Z32	X33	Y33	Z33	X34	Y34	Z34	X35	Y35	Z35	X36	Y36	Z36	X37	Y37	Z37	X38	Y38	Z38	X39	Y39	Z39	X40	Y40	Z40	X41	Y41	Z41	X42	Y42	Z42	X43	Y43	Z43	X44	Y44	Z44	X45	Y45	Z45	X46	Y46	Z46	X47	Y47	Z47	X48	Y48	Z48	X49	Y49	Z49	X50	Y50	Z50	X51	Y51	Z51	X52	Y52	Z52	X53	Y53	Z53	X54	Y54	Z54	

124	0.492	872.3856201171875	1745.656494140625	-296.5937805175777	814.9144287109375	1692.99560546875	-219.0217590332028	813.1885986328125	1698.5556640625	-366.9562377929684	674.5934448242188	1526.610717773438	-293.5866088867184	607.2176513671875	1330.066162109375	-223.0505523681638	597.8124389648438	1333.312377929688	-364.3771667480466	850.6812744140625	1362.968627929688	-306.1458740234372	760.1185302734375	1475.484497070312	-127.0630035400387	738.733642578125	1315.4453125	-33.47661972045869	805.3685913085938	1233.155029296875	-39.29991531372043	685.8865356445312	1228.945922851562	-13.52748966217014	743.6571044921875	1124.427856445312	-15.70226573944067	703.9208984375	1119.413696289062	-90.67094421386695	886.4302368164062	975.63330078125	-61.71455001831033	931.8948364257812	928.8694458007812	-117.5051956176756	883.3275146484375	882.7950439453125	-70.85784149169902	973.1698608398438	843.31103515625	-75.6981658935545	745.11865234375	1485.62109375	-466.3513488769528	698.0265502929688	1324.0634765625	-564.1053466796872	749.6337890625	1236.934814453125	-573.512756347656	627.1334228515625	1254.658935546875	-584.034973144531	673.5245361328125	1144.270874023438	-598.761291503906	622.6758422851562	1145.416381835938	-536.9481201171873	752.3148803710938	956.2780151367189	-603.0467529296873	782.791015625	888.6893310546876	-558.0311889648435	726.27392578125	878.2708740234376	-616.2504882812498	792.1206665039062	807.8142089843751	-611.0504150390623	740.8995971679688	1075.96044921875	-131.4966735839841	613.9564819335938	1049.376342773438	-301.1714172363279	731.7188720703125	1073.848999023438	-474.5270690917966	685.0394287109375	933.9273071289062	-121.9763183593748	666.2163696289062	659.7333374023438	-149.052780151367	724.7584838867188	664.5969848632812	-144.1910400390624	709.5593872070312	564.5747680664062	-182.6095733642577	648.4591064453125	583.130126953125	-172.4637908935545	581.2750854492188	356.3508605957032	-181.5266113281249	632.0791015625	327.1589660644532	-197.1362152099609	613.8980102539062	246.0242767333985	-219.6820983886718	552.1341552734375	262.6080322265626	-209.0989685058593	478.8634033203125	67.70893096923835	-304.9859619140625	632.5424194335938	19.25449562072759	-212.3325347900391	695.6395874023438	29.68585777282722	-309.7786865234375	710.5038452148438	959.1818237304689	-485.2405090332029	897.5908203125	710.3732299804689	-484.7637329101561	840.82958984375	709.4698486328126	-501.8880004882811	863.0203247070312	607.4472656250001	-477.5022583007811	922.7605590820312	632.1795043945314	-464.2239379882811	909.88720703125	353.2111816406251	-473.8160400390624	852.4265747070312	332.9586181640626	-474.4799194335937	849.0946655273438	246.4494171142579	-459.9811401367187	913.2182006835938	251.4918212890626	-455.2812194824218	815.0616455078125	53.37735748291024	-390.1834411621094	987.6548461914062	35.19616699218761	-464.4505920410156	1024.8828125	50.76805496215829	-373.6929016113281	
125	0.496	877.961669921875	1744.939208984375	-297.1540222167965	820.4817504882812	1692.291015625	-219.4362335205074	818.5770874023438	1697.4931640625	-367.4746398925777	680.1536254882812	1525.8623046875	-293.8677062988278	611.6758422851562	1329.523193359375	-224.2483825683591	603.1218872070312	1332.620239257812	-364.4862365722653	856.0913696289062	1361.90380859375	-306.8038330078122	765.8345947265625	1474.692016601562	-127.386924743652	744.5401611328125	1314.710083007812	-33.77295684814424	811.1996459960938	1232.355102539062	-39.59046936035129	691.7002563476562	1228.0859375	-13.63442039489719	749.5850219726562	1123.59130859375	-15.97767162322973	709.7542114257812	1118.566162109375	-91.13827514648413	892.77001953125	975.45458984375	-62.26248550415018	938.2748413085938	928.8820190429688	-118.1606521606443	890.0693359375	882.573486328125	-71.4995117187498	980.0400390625	843.5702514648438	-76.70626068115216	750.58056640625	1484.842041015625	-466.700042724609	702.9551391601562	1323.244750976563	-564.3604125976559	754.7498168945312	1236.082397460938	-573.711730957031	631.978759765625	1253.987060546875	-583.9404296874998	678.1708374023438	1143.433471679688	-598.755920410156	627.6435546875	1144.62548828125	-536.920959472656	757.15673828125	955.2411499023439	-602.879699707031	787.5836791992188	887.7720336914064	-558.070617675781	730.9656982421875	877.4923706054689	-616.146545410156	796.7689208984375	807.0594482421876	-611.082580566406	745.8289794921875	1075.112670898438	-131.8000488281248	619.3727416992188	1048.374633789062	-301.9211120605466	736.502197265625	1072.904663085938	-474.9398193359373	689.9052734375	933.724609375	-122.4158248901365	669.178955078125	659.9031982421875	-149.329620361328	727.64453125	664.3549194335938	-144.2890014648436	711.693115234375	564.287841796875	-182.7256317138671	651.0310668945312	583.43994140625	-172.5205993652342	582.2686767578125	356.8134155273438	-181.5980987548827	633.0152587890625	327.3562927246094	-197.0311584472655	614.5870361328125	246.3207702636719	-219.6187591552734	552.85400390625	263.1572570800782	-209.2187805175781	479.1103515625	68.43260192871101	-305.3795471191406	632.390625	19.25131988525395	-212.4307861328125	695.466796875	29.83042716979987	-310.3204650878906	715.7286376953125	958.1782226562501	-485.4649658203123	902.2232666015625	708.4427490234376	-483.7985534667967	845.5369262695312	707.5921630859376	-501.7423095703123	867.760986328125	606.3558959960939	-476.7071838378905	927.5435180664062	631.4422607421876	-464.2772521972655	919.4406127929688	352.7916564941407	-473.7035217285156	862.3890380859375	330.9799194335939	-473.6638488769531	861.7610473632812	243.9857330322267	-458.8742980957031	924.9566650390625	251.3731536865236	-455.4089660644531	832.0604248046875	50.75075149536141	-389.6770629882812	1004.734985351562	35.97776794433604	-464.5549926757812	1042.009399414062	52.2351837158204	-373.7390441894531	
126	0.5	883.4168090820312	1744.097290039062	-297.5570678710934	825.9703369140625	1691.381225585938	-219.9788970947262	823.9180297851562	1696.533447265625	-367.8910217285152	685.6923217773438	1524.969360351562	-294.099456787109	616.9510498046875	1328.9189453125	-224.3079986572263	608.4094848632812	1331.95703125	-364.6969299316403	861.4953002929688	1360.831298828125	-307.5220642089841	771.5677490234375	1473.828247070312	-127.7649154663083	750.2724609375	1313.988525390625	-33.98176574707002	817.0774536132812	1231.69677734375	-39.95873641967746	697.6943969726562	1227.244750976562	-13.7674198150632	755.5969848632812	1122.78125	-16.07483482360815	715.1322631835938	1117.85693359375	-91.20202636718726	899.0375366210938	975.1854248046875	-62.83100128173807	944.6395263671875	928.8460693359375	-118.9514999389646	896.8141479492188	881.9047241210938	-72.12177276611308	986.9574584960938	843.6792602539062	-77.62680053710919	755.8424072265625	1484.01025390625	-466.8367919921872	707.7403564453125	1322.310668945313	-564.3899536132809	759.3505859375	1235.008056640625	-573.8906249999998	636.8450317382812	1252.9951171875	-583.8751831054685	682.8634033203125	1142.553955078125	-598.696594238281	632.8915405273438	1143.5546875	-536.611877441406	761.9404907226562	954.5051269531251	-603.0504150390623	792.2975463867188	886.9744262695314	-558.105529785156	735.80615234375	876.6926879882814	-616.0167846679685	801.552490234375	806.0942382812501	-610.9186401367185	751.2578125	1074.3720703125	-131.9760894775388	624.5665283203125	1047.440185546875	-302.2858276367185	742.108642578125	1072.0048828125	-475.1261901855466	694.7894287109375	933.474365234375	-122.7811355590818	672.1627197265625	660.1480102539062	-149.2619781494139	730.5380859375	664.1232299804688	-144.3933105468749	714.0751342773438	564.248291015625	-182.5630035400389	653.5731811523438	583.786376953125	-172.5382690429686	583.3280639648438	357.3112792968751	-181.6813049316405	634.0333862304688	327.6505126953126	-196.9232940673827	615.3855590820312	246.7190399169922	-219.5255889892578	553.6755981445312	263.8872985839844	-209.4349060058593	479.3979797363281	69.22592926025398	-305.7628173828125	632.273681640625	19.26975631713872	-212.5702667236328	695.6922607421875	29.81025886535651	-309.8235473632812	720.9490966796875	957.1768798828126	-485.8100891113279	906.9986572265625	707.2878417968751	-484.1606445312498	850.31494140625	706.3616943359376	-501.555450439453	872.7019653320312	604.9125976562501	-476.1270141601561	932.4525756835938	630.2171020507814	-463.8948974609374	928.9927978515625	352.0847473144532	-473.0609741210937	872.35302734375	329.0103454589845	-473.1444091796874	873.7125244140625	242.1325683593751	-458.2070922851562	936.86767578125	251.0370483398439	-455.1847534179687	848.9376831054688	48.28546905517587	-389.0929870605469	1021.919372558594	36.90298080444347	-464.5699768066406	1059.274780273438	53.95484161376962	-374.0731811523438	
127	0.504	888.9247436523438	1743.314331054688	-298.1860961914059	831.5664672851562	1690.583374023438	-220.4701995849606	829.4880981445312	1695.587768554688	-368.4220275878902	691.2191162109375	1524.098266601562	-294.3424377441403	622.4205932617188	1328.220825195312	-224.3228454589841	613.710693359375	1331.240356445312	-365.0557556152341	866.9050903320312	1359.736694335938	-307.609680175781	777.2356567382812	1472.872802734375	-128.0733032226559	756.2023315429688	1313.020385742188	-34.33427047729463	822.9417724609375	1230.839599609375	-40.51377868652317	703.576904296875	1226.197021484375	-13.9002494812009	761.5400390625	1121.842041015625	-16.42759323120092	721.17333984375	1116.921752929688	-91.3609237670896	905.4320068359375	974.8528442382812	-63.36618804931619	951.0720825195312	928.6700439453125	-119.6538314819334	903.47119140625	881.5425415039062	-72.80828094482402	993.6895751953125	843.7136840820312	-78.44419097900372	761.1401977539062	1483.0146484375	-467.201507568359	712.7447509765625	1321.460083007813	-564.4813232421872	764.547119140625	1234.084838867188	-574.1938476562498	641.6866455078125	1252.063354492188	-583.755920410156	687.3936767578125	1141.65673828125	-598.8778686523435	643.3568115234375	1142.25927734375	-536.893371582031	766.7637939453125	953.6087036132814	-603.1737670898435	797.4679565429688	886.2648925781251	-558.324768066406	740.6708984375	875.7020874023439	-616.1008300781248	806.4496459960938	805.1339721679689	-611.1642456054685	756.7055053710938	1073.681518554688	-132.2614746093748	629.9321899414062	1046.475219726562	-302.9405822753904	747.5786743164062	1070.99658203125	-475.4584655761716	699.814697265625	933.28271484375	-122.8078002929685	675.0960693359375	660.3388671875	-149.5098419189452	733.5767822265625	664.0610961914062	-144.1748962402342	716.5177612304688	564.2044067382812	-182.4759826660155	656.1223754882812	584.1051025390625	-172.6521148681639	584.529296875	357.7235107421876	-181.7913513183593	635.0869140625	327.8142089843751	-196.8012542724609	616.1359252929688	246.9606628417969	-219.5127868652343	554.4360961914062	264.4920349121094	-209.618911743164	479.7237243652344	70.07504272460945	-306.0149536132812	632.1517944335938	19.25086402893071	-212.6766662597656	695.7869262695312	29.8132457733155	-309.6898498535156	726.3157958984375	956.0101928710939	-485.9045104980466	911.8606567382812	706.7329711914064	-485.0023193359373	855.0404052734375	705.3808593750001	-501.5600280761717	877.8627319335938	603.6286010742189	-475.6901245117186	937.2576904296875	629.2026977539064	-463.7499389648436	938.2632446289062	351.510711669922	-472.3826293945312	882.4873046875	327.3011169433595	-472.5970153808593	885.8397216796875	240.3202056884767	-457.6366577148437	948.791015625	250.628875732422	-454.6130676269531	865.7813110351562	46.46484375000009	-388.3834228515625	1038.59521484375	37.98582839965831	-464.6743774414062	1076.017822265625	55.86384201049813	-374.1128540039062	
